<?xml version="1.0" encoding="UTF-8" standalone="no"?>
<svg
   height="64"
   width="64.000008"
   viewBox="0 0 64.000008 64"
   version="1.1"
   id="svg5"
   sodipodi:docname="icon.svg"
   inkscape:version="1.3.2 (091e20ef0f, 2023-11-25, custom)"
   xmlns:inkscape="http://www.inkscape.org/namespaces/inkscape"
   xmlns:sodipodi="http://sodipodi.sourceforge.net/DTD/sodipodi-0.dtd"
   xmlns="http://www.w3.org/2000/svg"
   xmlns:svg="http://www.w3.org/2000/svg">
  <defs
     id="defs5" />
  <sodipodi:namedview
     id="namedview5"
     pagecolor="#ffffff"
     bordercolor="#000000"
     borderopacity="0.25"
     inkscape:showpageshadow="2"
     inkscape:pageopacity="0.0"
     inkscape:pagecheckerboard="0"
     inkscape:deskcolor="#d1d1d1"
     inkscape:zoom="1.06"
     inkscape:cx="138.67925"
     inkscape:cy="40.09434"
     inkscape:window-width="1351"
     inkscape:window-height="943"
     inkscape:window-x="0"
     inkscape:window-y="0"
     inkscape:window-maximized="0"
     inkscape:current-layer="svg5" />
  <path
     d="M 63.185887,48.000061 C 63.688035,47.22708 64,46.356134 64,45.57405 v -27.1481 c 0,-0.782088 -0.311535,-1.652833 -0.81394,-2.425816 L 31.999953,32.00008 Z"
     fill="#00599c"
     id="path1"
     style="stroke-width:0.197163" />
  <path
     d="M 34.771188,63.413438 61.228623,49.839477 c 0.762345,-0.391043 1.455076,-1.066247 1.957264,-1.839416 L 31.999953,32.00008 0.8142282,48.000249 c 0.5021727,0.772981 1.1950821,1.448378 1.9570069,1.839228 L 29.228719,63.413438 c 1.524081,0.782083 4.018418,0.782083 5.542469,0 z"
     fill="#004482"
     id="path2"
     style="stroke-width:0.197163" />
  <path
     d="M 63.18606,15.999949 C 62.683699,15.22678 61.990661,14.551557 61.228623,14.160515 L 34.771188,0.58656769 c -1.524065,-0.78209025 -4.018388,-0.78209025 -5.542485,0 L 2.7712351,14.160515 C 1.2469365,14.942417 0,16.861958 0,18.42595 v 27.1481 c 0,0.782084 0.31186964,1.65303 0.8142282,2.426011 L 31.999953,32.00008 Z"
     fill="#659ad2"
     id="path3"
     style="stroke-width:0.197163" />
  <path
     d="m 31.999953,50.957607 c -11.763244,0 -21.333333,-8.504306 -21.333333,-18.957527 0,-10.453203 9.570089,-18.957503 21.333333,-18.957503 7.590486,0 14.66963,3.629805 18.4746,9.472805 l -9.232673,4.747554 c -1.904285,-2.92466 -5.44584,-4.741607 -9.241927,-4.741607 -5.881722,0 -10.66665,4.252056 -10.66665,9.478751 0,5.22653 4.784928,9.478768 10.66665,9.478768 3.796506,0 7.338044,-1.816928 9.242546,-4.742152 l 9.232602,4.747378 c -3.804945,5.843543 -10.88426,9.473533 -18.475148,9.473533 z"
     fill="#ffffff"
     id="path4"
     style="stroke-width:0.197163" />
  <path
     fill="#ffffff"
     d="m 50.962836,28.840497 h -2.370073 v 2.106329 h -2.370494 v 2.106326 h 2.370494 v 2.106542 h 2.370073 v -2.106542 h 2.370572 v -2.106326 h -2.370572 z m 8.889009,0 h -2.37024 v 2.106329 h -2.370441 v 2.106326 h 2.370441 v 2.106542 h 2.37024 v -2.106542 h 2.370452 v -2.106326 h -2.370452 z"
     id="path5"
     style="stroke-width:0.197163" />
</svg>
